<svg width="25" height="25" viewBox="0 0 23 21" fill="none" xmlns="http://www.w3.org/2000/svg">
<path d="M11.5 0.4375C9.33677 0.4375 7.22212 1.02766 5.42346 2.13334C3.62479 3.23902 2.22291 4.81057 1.39507 6.64925C0.567239 8.48793 0.35064 10.5112 0.772666 12.4631C1.19469 14.415 2.23639 16.208 3.76602 17.6153C5.29566 19.0225 7.24454 19.9809 9.36621 20.3692C11.4879 20.7574 13.687 20.5581 15.6856 19.7965C17.6842 19.0349 19.3924 17.7452 20.5942 16.0904C21.796 14.4357 22.4375 12.4902 22.4375 10.5C22.4342 7.83219 21.2808 5.27453 19.2303 3.3881C17.1799 1.50167 14.3998 0.440544 11.5 0.4375ZM17.7438 16.9156C17.7282 15.9728 17.3107 15.0734 16.5812 14.4111C15.8517 13.7489 14.8686 13.3768 13.8438 13.375H9.15626C8.1314 13.3768 7.14832 13.7489 6.41882 14.4111C5.68933 15.0734 5.27182 15.9728 5.25626 16.9156C3.83951 15.7517 2.84042 14.2194 2.39128 12.5216C1.94214 10.8238 2.06414 9.04047 2.74113 7.40784C3.41811 5.77521 4.61815 4.37026 6.18233 3.37903C7.74651 2.3878 9.60105 1.85705 11.5004 1.85705C13.3997 1.85705 15.2543 2.3878 16.8185 3.37903C18.3826 4.37026 19.5827 5.77521 20.2597 7.40784C20.9366 9.04047 21.0586 10.8238 20.6095 12.5216C20.1604 14.2194 19.1605 15.7517 17.7438 16.9156Z" fill="#8D785F"/>
</svg>
