<svg width="25" height="25" viewBox="0 0 26 29" fill="none" xmlns="http://www.w3.org/2000/svg">
<g id="Frame">
<g id="Group">
<path id="Vector" d="M6.25 6.83333H21.1892C21.4919 6.83334 21.7912 6.9041 22.0679 7.04105C22.3446 7.17799 22.5925 7.37809 22.7956 7.62843C22.9987 7.87877 23.1525 8.17381 23.2472 8.49452C23.3418 8.81523 23.3751 9.1545 23.345 9.49045L22.695 16.7405C22.6415 17.3368 22.3913 17.8897 21.993 18.2918C21.5946 18.6939 21.0765 18.9166 20.5392 18.9167H10.1933C9.69226 18.9169 9.20661 18.7234 8.81906 18.3691C8.43152 18.0148 8.16604 17.5217 8.06783 16.9737L6.25 6.83333Z" stroke="#8D785F" stroke-width="2" stroke-linejoin="round"/>
<path id="Vector_2" d="M6.25 6.83333L5.3725 2.91471C5.31381 2.65341 5.17853 2.42148 4.98814 2.25575C4.79775 2.09002 4.56317 2.00001 4.32167 2H3M9.5 23.75H11.6667M18.1667 23.75H20.3333" stroke="#8D785F" stroke-width="2" stroke-linecap="round" stroke-linejoin="round"/>
</g>
</g>
</svg>
